HIERARCHY
ROOT root
{
	OFFSET	0	13.1	24.9
	CHANNELS 6  Xposition Yposition Zposition Xrotation Yrotation Zrotation
	JOINT spine_1
	{
		OFFSET	0	9.99999	0
		CHANNELS 3  Xrotation Yrotation Zrotation
		JOINT spine_2
		{
			OFFSET	0	112	-10
			CHANNELS 3  Xrotation Yrotation Zrotation
			JOINT spine_3
			{
				OFFSET	0	206.5	19.3
				CHANNELS 3  Xrotation Yrotation Zrotation
				JOINT spine_4
				{
					OFFSET	0	110.4	14.6
					CHANNELS 3  Xrotation Yrotation Zrotation
					JOINT neck_1
					{
						OFFSET	0	71.8	-50.3
						CHANNELS 3  Xrotation Yrotation Zrotation
						JOINT neck_2
						{
							OFFSET	0	86.2	-25.8
							CHANNELS 3  Xrotation Yrotation Zrotation
							JOINT head_ee
							{
								OFFSET	0	179.8	-8.7
								CHANNELS 3  Xrotation Yrotation Zrotation
								End Site
								{
									OFFSET	1	0	0
								}
							}
						}
					}
					JOINT left_clavicle
					{
						OFFSET	-43.2	22.4	-70.8
						CHANNELS 3  Xrotation Yrotation Zrotation
						JOINT left_shoulder
						{
							OFFSET	-93.9	-5.79999	48.7
							CHANNELS 3  Xrotation Yrotation Zrotation
							JOINT left_elbow
							{
								OFFSET	-291.4	-30.8	15.2
								CHANNELS 3  Xrotation Yrotation Zrotation
								JOINT left_lowarm_twist
								{
									OFFSET	-110.7	-3.89999	13.6
									CHANNELS 3  Xrotation Yrotation Zrotation
									JOINT left_hand
									{
										OFFSET	-110.7	-3.89999	13.6
										CHANNELS 3  Xrotation Yrotation Zrotation
										JOINT left_ee
										{
											OFFSET	-80.8	-5.10001	12.1
											CHANNELS 3  Xrotation Yrotation Zrotation
											End Site
											{
												OFFSET	1	0	0
											}
										}
									}
								}
							}
						}
					}
					JOINT right_clavicle
					{
						OFFSET	43.2	22.4	-70.8
						CHANNELS 3  Xrotation Yrotation Zrotation
						JOINT right_shoulder
						{
							OFFSET	93.9	-5.79999	48.7
							CHANNELS 3  Xrotation Yrotation Zrotation
							JOINT right_elbow
							{
								OFFSET	291.4	-30.8	15.2
								CHANNELS 3  Xrotation Yrotation Zrotation
								JOINT right_lowarm_twist
								{
									OFFSET	110.7	-3.89999	13.6
									CHANNELS 3  Xrotation Yrotation Zrotation
									JOINT right_hand
									{
										OFFSET	110.7	-3.89999	13.6
										CHANNELS 3  Xrotation Yrotation Zrotation
										JOINT right_ee
										{
											OFFSET	80.8	-5.10001	12.1
											CHANNELS 3  Xrotation Yrotation Zrotation
											End Site
											{
												OFFSET	1	0	0
											}
										}
									}
								}
							}
						}
					}
				}
			}
		}
	}
	JOINT left_hip
	{
		OFFSET	-82.8	-127.5	0.300001
		CHANNELS 3  Xrotation Yrotation Zrotation
		JOINT left_knee
		{
			OFFSET	-28.2	-396.7	2.2
			CHANNELS 3  Xrotation Yrotation Zrotation
			JOINT left_ankle
			{
				OFFSET	-11.7	-411.3	35.4
				CHANNELS 3  Xrotation Yrotation Zrotation
				JOINT left_toes
				{
					OFFSET	0	-60	-88.6
					CHANNELS 3  Xrotation Yrotation Zrotation
					JOINT left_foot_ee
					{
						OFFSET	-22.5	-16.5	-42.2
						CHANNELS 3  Xrotation Yrotation Zrotation
						End Site
						{
							OFFSET	1	0	0
						}
					}
				}
			}
		}
	}
	JOINT right_hip
	{
		OFFSET	82.8	-127.5	0.300001
		CHANNELS 3  Xrotation Yrotation Zrotation
		JOINT right_knee
		{
			OFFSET	28.2	-396.7	2.2
			CHANNELS 3  Xrotation Yrotation Zrotation
			JOINT right_ankle
			{
				OFFSET	11.7	-411.3	35.4
				CHANNELS 3  Xrotation Yrotation Zrotation
				JOINT right_toes
				{
					OFFSET	0	-60	-88.6
					CHANNELS 3  Xrotation Yrotation Zrotation
					JOINT right_foot_ee
					{
						OFFSET	22.5	-16.5	-42.2
						CHANNELS 3  Xrotation Yrotation Zrotation
						End Site
						{
							OFFSET	1	0	0
						}
					}
				}
			}
		}
	}
}
MOTION
Frames: 11
Frame Time: 0.02
3177.02 653.055 -1669.29 17.3261733674 74.0028372946 -17.6217392902 -3.61777 0.498764 1.60521 -3.61642 0.395623 1.63369 -3.60265 -0.0622086 1.67974 -3.60653 0.203819 1.6685 1.48368 4.29987 -1.76235 1.57543 9.05283 -1.55573 -0.0 0.0 -0.0 0.00182685 23.5094 2.72199 -19.6979 -9.94299 67.3256 0.273535 -7.71682 0.0184483 9.6481 0.238718 -1.20788 -0.276445 28.8897 9.79076 -0.0 0.0 -0.0 13.1137 22.6076 -26.297 37.1607 44.4282 -52.1658 2.09066 45.9978 -0.887468 -1.18344 0.043198 -0.144953 -1.90107 -21.2346 2.64297 0.0 0.0 0.0 27.4041 10.6502 -2.94137 -2.40238 0.0914336 0.357321 -5.837 26.6626 0.909394 -6.70641 0.0 0.0 -0.0 0.0 -0.0 -21.107 11.023 -0.422088 -6.29463 -0.207518 -0.943268 40.1123 1.79563 4.90115 -23.9841 0.0 0.0 0.0 0.0 0.0 
3083.17361663 668.088 -1665.64120927 84.6322533998 80.1610947633 -83.142323197 -6.37956 0.0739672 -0.0738902 -6.37956 0.0785191 -0.0690337 -6.37967 0.096375 -0.040531 -6.37966 0.0887644 -0.055243 4.24831 -2.60269 3.97011 4.394 -7.92764 4.35595 -0.0 0.0 -0.0 5.00762 4.58299 9.79498 -9.27956 -12.1696 64.6729 0.316675 -8.91561 0.0246883 -19.1677 -1.05413 2.20121 2.03555 29.6663 23.0745 -0.0 0.0 -0.0 8.00145 19.9775 -14.9733 37.7211 23.8961 -50.546 2.87224 54.8888 -1.49188 -3.99839 0.157925 -0.485974 -3.92829 -26.3798 11.4958 0.0 0.0 0.0 20.6423 -0.850553 3.60995 -10.5278 0.288278 1.58768 -7.74132 20.7596 1.17651 -27.484 0.0 0.0 -0.0 0.0 -0.0 -29.8118 10.2999 -7.10003 -7.40708 -0.233352 -1.11203 28.2302 -8.17039 3.69784 -39.3601 0.0 0.0 0.0 0.0 0.0 
3042.42604439 673.193 -1660.59246038 65.2149504063 79.5581869014 -63.3499621345 -6.14933 -0.0373941 -0.137987 -6.14932 -0.0285378 -0.140087 -6.14923 0.016847 -0.141968 -6.14926 -0.00578564 -0.142847 6.02443 -1.75222 3.95768 6.15076 -6.47553 4.52031 -0.0 0.0 -0.0 5.95364 3.02389 11.5623 -6.82077 -13.1367 64.8312 0.385984 -10.8248 0.0365707 -19.5292 -1.08091 2.23898 1.92011 29.6525 22.3905 -0.0 0.0 -0.0 8.63202 20.5946 -16.3154 33.0633 22.1489 -50.0248 2.55526 51.6823 -1.23768 -4.39608 0.175482 -0.533691 -3.66585 -24.8459 10.9407 0.0 0.0 0.0 19.9147 -1.26353 2.62782 -16.8606 0.319804 2.55834 0.952381 14.1242 -0.139754 -26.198 0.0 0.0 -0.0 0.0 -0.0 -29.8063 10.5103 -5.18565 -10.4096 -0.286671 -1.56962 27.0668 -8.07969 3.56797 -39.7541 0.0 0.0 0.0 0.0 0.0 
3042.47020609 673.193 -1659.93409062 66.6114013462 79.6725955217 -64.7696648908 -6.14933 -0.0373941 -0.137987 -6.14932 -0.0285378 -0.140087 -6.14923 0.016847 -0.141968 -6.14926 -0.00578564 -0.142847 6.02443 -1.75222 3.95768 6.15076 -6.47553 4.52031 -0.0 0.0 -0.0 5.95364 3.02389 11.5623 -6.82077 -13.1367 64.8312 0.385984 -10.8248 0.0365707 -19.5292 -1.08091 2.23898 1.92011 29.6525 22.3905 -0.0 0.0 -0.0 8.63202 20.5946 -16.3154 33.0633 22.1489 -50.0248 2.55526 51.6823 -1.23768 -4.39608 0.175482 -0.533691 -3.66585 -24.8459 10.9407 0.0 0.0 0.0 19.9147 -1.26353 2.62782 -16.8606 0.319804 2.55834 0.952381 14.1242 -0.139754 -26.198 0.0 0.0 -0.0 0.0 -0.0 -29.8063 10.5103 -5.18565 -10.4096 -0.286671 -1.56962 27.0668 -8.07969 3.56797 -39.7541 0.0 0.0 0.0 0.0 0.0 
2956.56849082 680.322 -1660.36900402 60.7227153507 79.5249018369 -58.6153191591 -5.18977 -0.229399 -0.366466 -5.18972 -0.205615 -0.380321 -5.18816 -0.0830647 -0.424289 -5.18838 -0.14903 -0.405846 6.24139 0.935514 6.57913 6.41338 -4.25085 7.68758 -0.0 0.0 -0.0 6.61597 0.778286 12.8353 -3.47956 -14.0846 64.9925 0.514082 -14.2875 0.0644314 -21.5304 -1.23347 2.44494 0.780482 29.1584 15.7255 -0.0 0.0 -0.0 7.01013 17.3287 -13.0015 19.5344 17.1295 -54.0621 2.89238 55.0768 -1.50838 -5.19631 0.211813 -0.629337 -2.65998 -18.4432 8.59017 0.0 0.0 0.0 16.9451 -1.15626 2.75807 -23.8605 0.229867 3.62798 8.08089 10.6232 -1.15724 -23.4977 0.0 0.0 -0.0 0.0 -0.0 -25.5369 12.7647 -4.29933 -23.5908 -0.235749 -3.58702 29.0177 -8.50053 3.78506 -38.7863 0.0 0.0 0.0 0.0 0.0 
2926.25919559 684.331 -1661.66451574 61.8912475391 79.8967456798 -59.6345629543 -4.89908 -0.166433 -0.670674 -4.89884 -0.12342 -0.679904 -4.89687 0.081112 -0.686238 -4.89753 -0.0282818 -0.690436 6.5859 1.20706 7.47956 6.80514 -4.62189 8.78413 -0.0 0.0 -0.0 6.84028 0.539229 13.2762 -2.2603 -14.8235 65.0128 0.550582 -15.2561 0.0737381 -25.1892 -1.5307 2.80738 -0.221969 28.927 10.102 -0.0 0.0 -0.0 6.64638 16.2295 -12.2895 14.1 15.5471 -54.8718 2.88885 55.044 -1.50548 -4.07377 0.161227 -0.495028 -2.26245 -13.2947 8.76352 0.0 0.0 0.0 14.723 -0.985412 2.89526 -23.5585 0.23644 3.58211 13.8326 11.6581 -1.94351 -25.5462 0.0 0.0 -0.0 0.0 -0.0 -22.5991 12.5939 -2.73097 -30.0339 -0.0427677 -4.55648 29.5729 -9.65527 3.84926 -37.4963 0.0 0.0 0.0 0.0 0.0 
2926.29046947 684.331 -1660.69747074 62.9964108483 79.9989759105 -60.7569542101 -4.89908 -0.166433 -0.670674 -4.89884 -0.12342 -0.679904 -4.89687 0.081112 -0.686238 -4.89753 -0.0282818 -0.690436 6.5859 1.20706 7.47956 6.80514 -4.62189 8.78413 -0.0 0.0 -0.0 6.84028 0.539229 13.2762 -2.2603 -14.8235 65.0128 0.550582 -15.2561 0.0737381 -25.1892 -1.5307 2.80738 -0.221969 28.927 10.102 -0.0 0.0 -0.0 6.64638 16.2295 -12.2895 14.1 15.5471 -54.8718 2.88885 55.044 -1.50548 -4.07377 0.161227 -0.495028 -2.26245 -13.2947 8.76352 0.0 0.0 0.0 14.723 -0.985412 2.89526 -23.5585 0.23644 3.58211 13.8326 11.6581 -1.94351 -25.5462 0.0 0.0 -0.0 0.0 -0.0 -22.5991 12.5939 -2.73097 -30.0339 -0.0427677 -4.55648 29.5729 -9.65527 3.84926 -37.4963 0.0 0.0 0.0 0.0 0.0 
2926.31142084 684.331 -1660.10646178 63.6829984865 80.0595787533 -61.4540704944 -4.89908 -0.166433 -0.670674 -4.89884 -0.12342 -0.679904 -4.89687 0.081112 -0.686238 -4.89753 -0.0282818 -0.690436 6.5859 1.20706 7.47956 6.80514 -4.62189 8.78413 -0.0 0.0 -0.0 6.84028 0.539229 13.2762 -2.2603 -14.8235 65.0128 0.550582 -15.2561 0.0737381 -25.1892 -1.5307 2.80738 -0.221969 28.927 10.102 -0.0 0.0 -0.0 6.64638 16.2295 -12.2895 14.1 15.5471 -54.8718 2.88885 55.044 -1.50548 -4.07377 0.161227 -0.495028 -2.26245 -13.2947 8.76352 0.0 0.0 0.0 14.723 -0.985412 2.89526 -23.5585 0.23644 3.58211 13.8326 11.6581 -1.94351 -25.5462 0.0 0.0 -0.0 0.0 -0.0 -22.5991 12.5939 -2.73097 -30.0339 -0.0427677 -4.55648 29.5729 -9.65527 3.84926 -37.4963 0.0 0.0 0.0 0.0 0.0 
2926.35675086 684.331 -1658.94279895 65.0594237904 80.1746259779 -62.851226043 -4.89908 -0.166433 -0.670674 -4.89884 -0.12342 -0.679904 -4.89687 0.081112 -0.686238 -4.89753 -0.0282818 -0.690436 6.5859 1.20706 7.47956 6.80514 -4.62189 8.78413 -0.0 0.0 -0.0 6.84028 0.539229 13.2762 -2.2603 -14.8235 65.0128 0.550582 -15.2561 0.0737381 -25.1892 -1.5307 2.80738 -0.221969 28.927 10.102 -0.0 0.0 -0.0 6.64638 16.2295 -12.2895 14.1 15.5471 -54.8718 2.88885 55.044 -1.50548 -4.07377 0.161227 -0.495028 -2.26245 -13.2947 8.76352 0.0 0.0 0.0 14.723 -0.985412 2.89526 -23.5585 0.23644 3.58211 13.8326 11.6581 -1.94351 -25.5462 0.0 0.0 -0.0 0.0 -0.0 -22.5991 12.5939 -2.73097 -30.0339 -0.0427677 -4.55648 29.5729 -9.65527 3.84926 -37.4963 0.0 0.0 0.0 0.0 0.0 
2926.42584817 684.331 -1657.38621462 66.9508631542 80.3193528384 -64.7703962858 -4.89908 -0.166433 -0.670674 -4.89884 -0.12342 -0.679904 -4.89687 0.081112 -0.686238 -4.89753 -0.0282818 -0.690436 6.5859 1.20706 7.47956 6.80514 -4.62189 8.78413 -0.0 0.0 -0.0 6.84028 0.539229 13.2762 -2.2603 -14.8235 65.0128 0.550582 -15.2561 0.0737381 -25.1892 -1.5307 2.80738 -0.221969 28.927 10.102 -0.0 0.0 -0.0 6.64638 16.2295 -12.2895 14.1 15.5471 -54.8718 2.88885 55.044 -1.50548 -4.07377 0.161227 -0.495028 -2.26245 -13.2947 8.76352 0.0 0.0 0.0 14.723 -0.985412 2.89526 -23.5585 0.23644 3.58211 13.8326 11.6581 -1.94351 -25.5462 0.0 0.0 -0.0 0.0 -0.0 -22.5991 12.5939 -2.73097 -30.0339 -0.0427677 -4.55648 29.5729 -9.65527 3.84926 -37.4963 0.0 0.0 0.0 0.0 0.0 
2906.77457955 690.454 -1649.22955718 77.9606307458 81.1302293666 -75.8757387361 -4.56228 -0.391555 -0.879854 -4.56191 -0.334776 -0.902984 -4.55568 -0.0613912 -0.961082 -4.55691 -0.212399 -0.939328 6.12874 0.968658 8.95224 6.46112 -6.29474 10.455 -0.0 0.0 -0.0 7.19195 -0.283579 13.974 -0.51333 -15.6298 65.2297 0.624848 -17.199 0.0944949 -24.7651 -1.49507 2.76634 -0.031431 26.6901 10.3557 -0.0 0.0 -0.0 6.13295 16.5309 -11.1608 10.0664 14.4069 -55.5207 2.6233 52.4119 -1.29133 -5.27977 0.215679 -0.639283 -2.2061 -12.9127 8.59596 0.0 0.0 0.0 13.972 -1.33527 2.98499 -24.5806 0.213215 3.73724 13.7093 8.05052 -1.92239 -25.3305 0.0 0.0 -0.0 0.0 -0.0 -20.095 13.5066 -2.30046 -34.1319 0.136242 -5.1597 32.0768 -7.92451 4.10851 -37.2137 0.0 0.0 0.0 0.0 0.0 
